<mxfile host="app.diagrams.net" modified="2021-03-04T12:06:14.746Z" agent="5.0 (Windows NT 10.0; Win64; x64) AppleWebKit/537.36 (KHTML, like Gecko) Chrome/88.0.4324.190 Safari/537.36" etag="jiWE-8qmwnectxD-vD2o" version="14.4.3" type="github">
  <diagram id="vMYTdDhBlaslFHV7eie7" name="Page-1">
    <mxGraphModel dx="782" dy="1479" grid="1" gridSize="10" guides="1" tooltips="1" connect="1" arrows="1" fold="1" page="1" pageScale="1" pageWidth="850" pageHeight="1100" math="0" shadow="0">
      <root>
        <mxCell id="0" />
        <mxCell id="1" parent="0" />
        <mxCell id="3xbs1KLySd6zEUoxScLz-1" value="" style="rounded=1;whiteSpace=wrap;html=1;" parent="1" vertex="1">
          <mxGeometry x="100" y="-350" width="20" height="710" as="geometry" />
        </mxCell>
        <mxCell id="3xbs1KLySd6zEUoxScLz-2" value="&lt;span style=&quot;color: rgba(0 , 0 , 0 , 0) ; font-family: monospace ; font-size: 0px&quot;&gt;%3CmxGraphModel%3E%3Croot%3E%3CmxCell%20id%3D%220%22%2F%3E%3CmxCell%20id%3D%221%22%20parent%3D%220%22%2F%3E%3CmxCell%20id%3D%222%22%20value%3D%223.4%20ENCRYPTION%20(DEFAULT%20MODE)%20P95%3A%2017%2C%20P99%3A%20196%22%20style%3D%22text%3Bhtml%3D1%3Balign%3Dcenter%3BverticalAlign%3Dmiddle%3Bresizable%3D0%3Bpoints%3D%5B%5D%3Bautosize%3D1%3BstrokeColor%3D%2382b366%3BfillColor%3D%23FF6666%3B%22%20vertex%3D%221%22%20parent%3D%221%22%3E%3CmxGeometry%20x%3D%22540%22%20y%3D%2290%22%20width%3D%22320%22%20height%3D%2220%22%20as%3D%22geometry%22%2F%3E%3C%2FmxCell%3E%3C%2Froot%3E%3C%2FmxGraphModel%3E&lt;/span&gt;" style="rounded=1;whiteSpace=wrap;html=1;" parent="1" vertex="1">
          <mxGeometry x="580" y="-280" width="20" height="640" as="geometry" />
        </mxCell>
        <mxCell id="3xbs1KLySd6zEUoxScLz-3" value="" style="rounded=1;whiteSpace=wrap;html=1;" parent="1" vertex="1">
          <mxGeometry x="1265" y="-320" width="20" height="680" as="geometry" />
        </mxCell>
        <mxCell id="3xbs1KLySd6zEUoxScLz-11" value="" style="endArrow=classic;html=1;entryX=-0.05;entryY=0.024;entryDx=0;entryDy=0;exitX=1;exitY=0.124;exitDx=0;exitDy=0;exitPerimeter=0;entryPerimeter=0;" parent="1" source="3xbs1KLySd6zEUoxScLz-1" target="3xbs1KLySd6zEUoxScLz-2" edge="1">
          <mxGeometry width="50" height="50" relative="1" as="geometry">
            <mxPoint x="130" y="-262" as="sourcePoint" />
            <mxPoint x="490" y="-262.5" as="targetPoint" />
          </mxGeometry>
        </mxCell>
        <mxCell id="3xbs1KLySd6zEUoxScLz-12" value="2. GET Index Manifest&amp;nbsp;" style="text;html=1;align=center;verticalAlign=middle;resizable=0;points=[];autosize=1;fillColor=#f5f5f5;strokeColor=#666666;fontColor=#333333;" parent="1" vertex="1">
          <mxGeometry x="262" y="-279" width="140" height="20" as="geometry" />
        </mxCell>
        <mxCell id="3xbs1KLySd6zEUoxScLz-13" value="" style="endArrow=classic;startArrow=classic;html=1;exitX=1.05;exitY=0.064;exitDx=0;exitDy=0;exitPerimeter=0;entryX=0.067;entryY=0.118;entryDx=0;entryDy=0;entryPerimeter=0;" parent="1" source="3xbs1KLySd6zEUoxScLz-2" target="3xbs1KLySd6zEUoxScLz-3" edge="1">
          <mxGeometry width="50" height="50" relative="1" as="geometry">
            <mxPoint x="630" y="-240" as="sourcePoint" />
            <mxPoint x="1250" y="-240" as="targetPoint" />
            <Array as="points" />
          </mxGeometry>
        </mxCell>
        <mxCell id="3xbs1KLySd6zEUoxScLz-14" value="" style="endArrow=classic;html=1;entryX=1.083;entryY=0.176;entryDx=0;entryDy=0;entryPerimeter=0;" parent="1" target="3xbs1KLySd6zEUoxScLz-1" edge="1">
          <mxGeometry width="50" height="50" relative="1" as="geometry">
            <mxPoint x="580" y="-225" as="sourcePoint" />
            <mxPoint x="150" y="-228" as="targetPoint" />
          </mxGeometry>
        </mxCell>
        <mxCell id="3xbs1KLySd6zEUoxScLz-15" value="2 Response Index Manifest" style="text;html=1;align=center;verticalAlign=middle;resizable=0;points=[];autosize=1;fillColor=#f5f5f5;strokeColor=#666666;fontColor=#333333;" parent="1" vertex="1">
          <mxGeometry x="245" y="-250" width="160" height="20" as="geometry" />
        </mxCell>
        <mxCell id="3xbs1KLySd6zEUoxScLz-16" value="" style="endArrow=classic;html=1;exitX=1.1;exitY=0.237;exitDx=0;exitDy=0;exitPerimeter=0;entryX=-0.017;entryY=0.156;entryDx=0;entryDy=0;entryPerimeter=0;" parent="1" source="3xbs1KLySd6zEUoxScLz-1" target="3xbs1KLySd6zEUoxScLz-2" edge="1">
          <mxGeometry width="50" height="50" relative="1" as="geometry">
            <mxPoint x="140" y="-182" as="sourcePoint" />
            <mxPoint x="560" y="-182" as="targetPoint" />
          </mxGeometry>
        </mxCell>
        <mxCell id="3xbs1KLySd6zEUoxScLz-18" value="3,4 GET Video &amp;amp; Audio Playlist&amp;nbsp;" style="text;html=1;align=center;verticalAlign=middle;resizable=0;points=[];autosize=1;fillColor=#f5f5f5;strokeColor=#666666;fontColor=#333333;" parent="1" vertex="1">
          <mxGeometry x="235" y="-210" width="180" height="20" as="geometry" />
        </mxCell>
        <mxCell id="3xbs1KLySd6zEUoxScLz-19" value="" style="endArrow=classic;startArrow=classic;html=1;exitX=1.167;exitY=0.167;exitDx=0;exitDy=0;exitPerimeter=0;" parent="1" source="3xbs1KLySd6zEUoxScLz-2" edge="1">
          <mxGeometry width="50" height="50" relative="1" as="geometry">
            <mxPoint x="620" y="-171" as="sourcePoint" />
            <mxPoint x="1263" y="-171" as="targetPoint" />
          </mxGeometry>
        </mxCell>
        <mxCell id="3xbs1KLySd6zEUoxScLz-20" value="3,4 AUTH CALL TO VROOM (P95: 3620)" style="text;html=1;align=center;verticalAlign=middle;resizable=0;points=[];autosize=1;strokeColor=#d6b656;fillColor=#fff2cc;" parent="1" vertex="1">
          <mxGeometry x="765" y="-190" width="230" height="20" as="geometry" />
        </mxCell>
        <mxCell id="3xbs1KLySd6zEUoxScLz-27" value="" style="ellipse;whiteSpace=wrap;html=1;aspect=fixed;fillColor=#dae8fc;strokeColor=#6c8ebf;" parent="1" vertex="1">
          <mxGeometry x="567.5" y="-170" width="45" height="45" as="geometry" />
        </mxCell>
        <mxCell id="3xbs1KLySd6zEUoxScLz-28" value="3,4&amp;nbsp; URL SIGNING&amp;nbsp;&amp;nbsp;&lt;br&gt;P95: 28, P99: 36" style="text;html=1;align=center;verticalAlign=middle;resizable=0;points=[];autosize=1;strokeColor=#d6b656;fillColor=#fff2cc;" parent="1" vertex="1">
          <mxGeometry x="545" y="-162.5" width="120" height="30" as="geometry" />
        </mxCell>
        <mxCell id="3xbs1KLySd6zEUoxScLz-30" value="3,4 Response Video &amp;amp; Audio Playlist&lt;br&gt;" style="text;html=1;align=center;verticalAlign=middle;resizable=0;points=[];autosize=1;fillColor=#f5f5f5;strokeColor=#666666;fontColor=#333333;" parent="1" vertex="1">
          <mxGeometry x="205" y="-152.5" width="210" height="20" as="geometry" />
        </mxCell>
        <mxCell id="3xbs1KLySd6zEUoxScLz-67" value="" style="endArrow=classic;html=1;exitX=-0.1;exitY=0.386;exitDx=0;exitDy=0;exitPerimeter=0;" parent="1" source="BYCbOS0FEEhGUaiiPkb2-87" edge="1">
          <mxGeometry width="50" height="50" relative="1" as="geometry">
            <mxPoint x="582" y="-227" as="sourcePoint" />
            <mxPoint x="116" y="-300" as="targetPoint" />
          </mxGeometry>
        </mxCell>
        <mxCell id="3xbs1KLySd6zEUoxScLz-75" value="" style="endArrow=classic;html=1;exitX=1.067;exitY=0.355;exitDx=0;exitDy=0;exitPerimeter=0;entryX=-0.217;entryY=0.284;entryDx=0;entryDy=0;entryPerimeter=0;" parent="1" source="3xbs1KLySd6zEUoxScLz-1" target="3xbs1KLySd6zEUoxScLz-2" edge="1">
          <mxGeometry width="50" height="50" relative="1" as="geometry">
            <mxPoint x="140" y="-99" as="sourcePoint" />
            <mxPoint x="560" y="-99" as="targetPoint" />
            <Array as="points" />
          </mxGeometry>
        </mxCell>
        <mxCell id="3xbs1KLySd6zEUoxScLz-82" value="" style="endArrow=classic;startArrow=classic;html=1;exitX=1.117;exitY=0.298;exitDx=0;exitDy=0;exitPerimeter=0;" parent="1" source="3xbs1KLySd6zEUoxScLz-2" edge="1">
          <mxGeometry width="50" height="50" relative="1" as="geometry">
            <mxPoint x="620" y="-89" as="sourcePoint" />
            <mxPoint x="1261" y="-89" as="targetPoint" />
            <Array as="points" />
          </mxGeometry>
        </mxCell>
        <mxCell id="BYCbOS0FEEhGUaiiPkb2-1" value="5,6 GET Init Audio &amp;amp; Video Segment (Existing Flow)" style="text;html=1;align=center;verticalAlign=middle;resizable=0;points=[];autosize=1;fillColor=#f5f5f5;strokeColor=#666666;fontColor=#333333;" parent="1" vertex="1">
          <mxGeometry x="147" y="-120" width="290" height="20" as="geometry" />
        </mxCell>
        <mxCell id="BYCbOS0FEEhGUaiiPkb2-10" value="" style="endArrow=classic;html=1;entryX=1.067;entryY=0.433;entryDx=0;entryDy=0;entryPerimeter=0;" parent="1" target="3xbs1KLySd6zEUoxScLz-1" edge="1">
          <mxGeometry width="50" height="50" relative="1" as="geometry">
            <mxPoint x="580" y="-43" as="sourcePoint" />
            <mxPoint x="150" y="-42" as="targetPoint" />
          </mxGeometry>
        </mxCell>
        <mxCell id="BYCbOS0FEEhGUaiiPkb2-11" value="5,6 Response Init Audio &amp;amp; Video Segment" style="text;html=1;align=center;verticalAlign=middle;resizable=0;points=[];autosize=1;fillColor=#f5f5f5;strokeColor=#666666;fontColor=#333333;" parent="1" vertex="1">
          <mxGeometry x="172" y="-67.5" width="240" height="20" as="geometry" />
        </mxCell>
        <mxCell id="BYCbOS0FEEhGUaiiPkb2-14" value="" style="endArrow=classic;html=1;exitX=1;exitY=0.52;exitDx=0;exitDy=0;exitPerimeter=0;entryX=-0.083;entryY=0.466;entryDx=0;entryDy=0;entryPerimeter=0;" parent="1" source="3xbs1KLySd6zEUoxScLz-1" target="3xbs1KLySd6zEUoxScLz-2" edge="1">
          <mxGeometry width="50" height="50" relative="1" as="geometry">
            <mxPoint x="140" y="18" as="sourcePoint" />
            <mxPoint x="560" y="18" as="targetPoint" />
          </mxGeometry>
        </mxCell>
        <mxCell id="BYCbOS0FEEhGUaiiPkb2-15" value="7,8 GET Audio &amp;amp; Video transcode (Existing Flow)" style="text;html=1;align=center;verticalAlign=middle;resizable=0;points=[];autosize=1;fillColor=#f5f5f5;strokeColor=#666666;fontColor=#333333;" parent="1" vertex="1">
          <mxGeometry x="170" y="-10" width="280" height="20" as="geometry" />
        </mxCell>
        <mxCell id="BYCbOS0FEEhGUaiiPkb2-16" value="" style="endArrow=classic;startArrow=classic;html=1;entryX=0.117;entryY=0.512;entryDx=0;entryDy=0;entryPerimeter=0;" parent="1" target="3xbs1KLySd6zEUoxScLz-3" edge="1">
          <mxGeometry width="50" height="50" relative="1" as="geometry">
            <mxPoint x="604" y="30" as="sourcePoint" />
            <mxPoint x="1250" y="30" as="targetPoint" />
          </mxGeometry>
        </mxCell>
        <mxCell id="BYCbOS0FEEhGUaiiPkb2-17" value="" style="endArrow=classic;html=1;entryX=1.017;entryY=0.579;entryDx=0;entryDy=0;entryPerimeter=0;exitX=0.017;exitY=0.531;exitDx=0;exitDy=0;exitPerimeter=0;" parent="1" source="3xbs1KLySd6zEUoxScLz-2" target="3xbs1KLySd6zEUoxScLz-1" edge="1">
          <mxGeometry width="50" height="50" relative="1" as="geometry">
            <mxPoint x="570" y="61" as="sourcePoint" />
            <mxPoint x="150" y="62" as="targetPoint" />
          </mxGeometry>
        </mxCell>
        <mxCell id="BYCbOS0FEEhGUaiiPkb2-18" value="7.8 Respone Audio &amp;amp; Video transcode" style="text;html=1;align=center;verticalAlign=middle;resizable=0;points=[];autosize=1;fillColor=#f5f5f5;strokeColor=#666666;fontColor=#333333;" parent="1" vertex="1">
          <mxGeometry x="222" y="40" width="220" height="20" as="geometry" />
        </mxCell>
        <mxCell id="BYCbOS0FEEhGUaiiPkb2-43" value="" style="endArrow=classic;html=1;exitX=1.15;exitY=0.632;exitDx=0;exitDy=0;exitPerimeter=0;entryX=-0.117;entryY=0.592;entryDx=0;entryDy=0;entryPerimeter=0;" parent="1" source="3xbs1KLySd6zEUoxScLz-1" target="3xbs1KLySd6zEUoxScLz-2" edge="1">
          <mxGeometry width="50" height="50" relative="1" as="geometry">
            <mxPoint x="140" y="100" as="sourcePoint" />
            <mxPoint x="560" y="100" as="targetPoint" />
          </mxGeometry>
        </mxCell>
        <mxCell id="BYCbOS0FEEhGUaiiPkb2-45" value="9,10 Get Audio &amp;amp; Video ProtectionKey" style="text;html=1;align=center;verticalAlign=middle;resizable=0;points=[];autosize=1;fillColor=#fff2cc;strokeColor=#d6b656;" parent="1" vertex="1">
          <mxGeometry x="195" y="80" width="220" height="20" as="geometry" />
        </mxCell>
        <mxCell id="BYCbOS0FEEhGUaiiPkb2-47" value="" style="endArrow=classic;startArrow=classic;html=1;exitX=-0.217;exitY=0.635;exitDx=0;exitDy=0;exitPerimeter=0;entryX=1;entryY=0.619;entryDx=0;entryDy=0;entryPerimeter=0;" parent="1" source="3xbs1KLySd6zEUoxScLz-3" target="3xbs1KLySd6zEUoxScLz-2" edge="1">
          <mxGeometry width="50" height="50" relative="1" as="geometry">
            <mxPoint x="1250" y="113" as="sourcePoint" />
            <mxPoint x="620" y="113" as="targetPoint" />
          </mxGeometry>
        </mxCell>
        <mxCell id="BYCbOS0FEEhGUaiiPkb2-48" value="" style="endArrow=classic;html=1;entryX=1.05;entryY=0.682;entryDx=0;entryDy=0;entryPerimeter=0;exitX=0.033;exitY=0.647;exitDx=0;exitDy=0;exitPerimeter=0;" parent="1" source="3xbs1KLySd6zEUoxScLz-2" target="3xbs1KLySd6zEUoxScLz-1" edge="1">
          <mxGeometry width="50" height="50" relative="1" as="geometry">
            <mxPoint x="570" y="134" as="sourcePoint" />
            <mxPoint x="140" y="134" as="targetPoint" />
          </mxGeometry>
        </mxCell>
        <mxCell id="BYCbOS0FEEhGUaiiPkb2-49" value="9,10 Response Audio &amp;amp; Video ProtectionKey P95:1500, P99: 4500" style="text;html=1;align=center;verticalAlign=middle;resizable=0;points=[];autosize=1;fillColor=#fff2cc;strokeColor=#d6b656;" parent="1" vertex="1">
          <mxGeometry x="120" y="110" width="370" height="20" as="geometry" />
        </mxCell>
        <mxCell id="BYCbOS0FEEhGUaiiPkb2-51" value="CDN" style="rounded=1;whiteSpace=wrap;html=1;fillColor=#fff2cc;strokeColor=#d6b656;" parent="1" vertex="1">
          <mxGeometry x="307" y="140" width="50" height="220" as="geometry" />
        </mxCell>
        <mxCell id="BYCbOS0FEEhGUaiiPkb2-55" value="" style="endArrow=classic;html=1;exitX=0.373;exitY=1.161;exitDx=0;exitDy=0;exitPerimeter=0;entryX=1.2;entryY=0.308;entryDx=0;entryDy=0;entryPerimeter=0;" parent="1" source="3xbs1KLySd6zEUoxScLz-28" target="3xbs1KLySd6zEUoxScLz-1" edge="1">
          <mxGeometry width="50" height="50" relative="1" as="geometry">
            <mxPoint x="260" y="-140" as="sourcePoint" />
            <mxPoint x="310" y="-190" as="targetPoint" />
          </mxGeometry>
        </mxCell>
        <mxCell id="BYCbOS0FEEhGUaiiPkb2-58" value="" style="endArrow=classic;html=1;exitX=1.033;exitY=0.74;exitDx=0;exitDy=0;exitPerimeter=0;entryX=0.007;entryY=0.161;entryDx=0;entryDy=0;entryPerimeter=0;" parent="1" source="3xbs1KLySd6zEUoxScLz-1" target="BYCbOS0FEEhGUaiiPkb2-51" edge="1">
          <mxGeometry width="50" height="50" relative="1" as="geometry">
            <mxPoint x="280" y="200" as="sourcePoint" />
            <mxPoint x="330" y="150" as="targetPoint" />
          </mxGeometry>
        </mxCell>
        <mxCell id="BYCbOS0FEEhGUaiiPkb2-59" value="11,12 Get Audio &amp;amp; Video &lt;br&gt;transcode" style="text;html=1;align=center;verticalAlign=middle;resizable=0;points=[];autosize=1;fillColor=#fff2cc;strokeColor=#d6b656;" parent="1" vertex="1">
          <mxGeometry x="145" y="145" width="150" height="30" as="geometry" />
        </mxCell>
        <mxCell id="BYCbOS0FEEhGUaiiPkb2-61" value="" style="endArrow=classic;html=1;exitX=1.093;exitY=0.179;exitDx=0;exitDy=0;exitPerimeter=0;" parent="1" source="BYCbOS0FEEhGUaiiPkb2-51" edge="1">
          <mxGeometry width="50" height="50" relative="1" as="geometry">
            <mxPoint x="340" y="200" as="sourcePoint" />
            <mxPoint x="580" y="179" as="targetPoint" />
          </mxGeometry>
        </mxCell>
        <mxCell id="BYCbOS0FEEhGUaiiPkb2-62" value="11,12 B MISS CASE: &lt;br&gt;FETCH CONTENT FROM ORIGIN" style="text;html=1;align=center;verticalAlign=middle;resizable=0;points=[];autosize=1;fillColor=#f5f5f5;strokeColor=#666666;fontColor=#333333;" parent="1" vertex="1">
          <mxGeometry x="367.5" y="145" width="200" height="30" as="geometry" />
        </mxCell>
        <mxCell id="BYCbOS0FEEhGUaiiPkb2-63" value="11,12&amp;nbsp; FETCH ALT/ORIGINAL STREAM (WITH CRYPTO-KEY)&lt;br&gt;FROM SPO&amp;nbsp;" style="text;html=1;align=center;verticalAlign=middle;resizable=0;points=[];autosize=1;strokeColor=#d6b656;fillColor=#fff2cc;" parent="1" vertex="1">
          <mxGeometry x="620" y="160" width="350" height="30" as="geometry" />
        </mxCell>
        <mxCell id="BYCbOS0FEEhGUaiiPkb2-65" value="" style="endArrow=classic;startArrow=classic;html=1;exitX=1;exitY=0.75;exitDx=0;exitDy=0;entryX=0.25;entryY=0.765;entryDx=0;entryDy=0;entryPerimeter=0;" parent="1" source="3xbs1KLySd6zEUoxScLz-2" target="3xbs1KLySd6zEUoxScLz-3" edge="1">
          <mxGeometry width="50" height="50" relative="1" as="geometry">
            <mxPoint x="870" y="80" as="sourcePoint" />
            <mxPoint x="920" y="30" as="targetPoint" />
          </mxGeometry>
        </mxCell>
        <mxCell id="BYCbOS0FEEhGUaiiPkb2-66" value="11,12 A HIT CASE&lt;br&gt;CONTENT SERVED FROM&lt;br&gt;&amp;nbsp;CDN&amp;nbsp;" style="text;html=1;align=center;verticalAlign=middle;resizable=0;points=[];autosize=1;fillColor=#fff2cc;strokeColor=#d6b656;" parent="1" vertex="1">
          <mxGeometry x="135" y="195" width="160" height="50" as="geometry" />
        </mxCell>
        <mxCell id="BYCbOS0FEEhGUaiiPkb2-68" value="" style="endArrow=classic;html=1;entryX=0.783;entryY=0.854;entryDx=0;entryDy=0;entryPerimeter=0;" parent="1" target="3xbs1KLySd6zEUoxScLz-1" edge="1">
          <mxGeometry width="50" height="50" relative="1" as="geometry">
            <mxPoint x="302" y="256" as="sourcePoint" />
            <mxPoint x="390" y="280" as="targetPoint" />
            <Array as="points">
              <mxPoint x="310" y="256" />
            </Array>
          </mxGeometry>
        </mxCell>
        <mxCell id="BYCbOS0FEEhGUaiiPkb2-69" value="" style="ellipse;whiteSpace=wrap;html=1;aspect=fixed;fillColor=#dae8fc;strokeColor=#6c8ebf;" parent="1" vertex="1">
          <mxGeometry x="572.5" y="250" width="35" height="35" as="geometry" />
        </mxCell>
        <mxCell id="BYCbOS0FEEhGUaiiPkb2-70" value="11,12 ENCRYPTION P95: 17, P99: 196" style="text;html=1;align=center;verticalAlign=middle;resizable=0;points=[];autosize=1;strokeColor=#d6b656;fillColor=#fff2cc;" parent="1" vertex="1">
          <mxGeometry x="515" y="257.5" width="230" height="20" as="geometry" />
        </mxCell>
        <mxCell id="BYCbOS0FEEhGUaiiPkb2-71" value="" style="endArrow=classic;html=1;entryX=0.85;entryY=0.929;entryDx=0;entryDy=0;entryPerimeter=0;" parent="1" target="3xbs1KLySd6zEUoxScLz-1" edge="1">
          <mxGeometry width="50" height="50" relative="1" as="geometry">
            <mxPoint x="307" y="310" as="sourcePoint" />
            <mxPoint x="430" y="190" as="targetPoint" />
          </mxGeometry>
        </mxCell>
        <mxCell id="BYCbOS0FEEhGUaiiPkb2-72" value="11,12&amp;nbsp; Response Audio &amp;amp; Video&lt;br&gt;(CDN MISS CASE)" style="text;html=1;align=center;verticalAlign=middle;resizable=0;points=[];autosize=1;fillColor=#fff2cc;strokeColor=#d6b656;" parent="1" vertex="1">
          <mxGeometry x="125" y="277.5" width="180" height="30" as="geometry" />
        </mxCell>
        <mxCell id="BYCbOS0FEEhGUaiiPkb2-73" value="" style="endArrow=classic;html=1;" parent="1" edge="1">
          <mxGeometry width="50" height="50" relative="1" as="geometry">
            <mxPoint x="576" y="310" as="sourcePoint" />
            <mxPoint x="359" y="310" as="targetPoint" />
            <Array as="points">
              <mxPoint x="359" y="310" />
            </Array>
          </mxGeometry>
        </mxCell>
        <mxCell id="BYCbOS0FEEhGUaiiPkb2-74" value="11,12 RESPONSE TO CDN" style="text;html=1;align=center;verticalAlign=middle;resizable=0;points=[];autosize=1;fillColor=#f5f5f5;strokeColor=#666666;fontColor=#333333;" parent="1" vertex="1">
          <mxGeometry x="380" y="282.5" width="160" height="20" as="geometry" />
        </mxCell>
        <mxCell id="BYCbOS0FEEhGUaiiPkb2-75" value="HLS CLIENT PLAYER" style="text;html=1;align=center;verticalAlign=middle;resizable=0;points=[];autosize=1;fillColor=#dae8fc;strokeColor=#6c8ebf;" parent="1" vertex="1">
          <mxGeometry x="50" y="390" width="130" height="20" as="geometry" />
        </mxCell>
        <mxCell id="BYCbOS0FEEhGUaiiPkb2-76" value="AFD CDN" style="text;html=1;align=center;verticalAlign=middle;resizable=0;points=[];autosize=1;strokeColor=#6c8ebf;fillColor=#dae8fc;" parent="1" vertex="1">
          <mxGeometry x="297" y="380" width="70" height="20" as="geometry" />
        </mxCell>
        <mxCell id="BYCbOS0FEEhGUaiiPkb2-77" value="MeTA SERVICE&lt;br&gt;" style="text;html=1;align=center;verticalAlign=middle;resizable=0;points=[];autosize=1;strokeColor=#6c8ebf;fillColor=#dae8fc;" parent="1" vertex="1">
          <mxGeometry x="540" y="380" width="100" height="20" as="geometry" />
        </mxCell>
        <mxCell id="BYCbOS0FEEhGUaiiPkb2-78" value="SPO SERVICE" style="text;html=1;align=center;verticalAlign=middle;resizable=0;points=[];autosize=1;strokeColor=#6c8ebf;fillColor=#dae8fc;" parent="1" vertex="1">
          <mxGeometry x="1240" y="380" width="100" height="20" as="geometry" />
        </mxCell>
        <mxCell id="BYCbOS0FEEhGUaiiPkb2-79" value="" style="endArrow=none;dashed=1;html=1;fillColor=#d5e8d4;strokeColor=#82b366;strokeWidth=3;" parent="1" source="BYCbOS0FEEhGUaiiPkb2-85" edge="1">
          <mxGeometry width="50" height="50" relative="1" as="geometry">
            <mxPoint x="30" y="70" as="sourcePoint" />
            <mxPoint x="1350" y="70" as="targetPoint" />
          </mxGeometry>
        </mxCell>
        <mxCell id="BYCbOS0FEEhGUaiiPkb2-80" value="" style="endArrow=none;dashed=1;html=1;fillColor=#d5e8d4;strokeColor=#82b366;strokeWidth=3;" parent="1" edge="1">
          <mxGeometry width="50" height="50" relative="1" as="geometry">
            <mxPoint x="1350" y="340" as="sourcePoint" />
            <mxPoint x="1350" y="70" as="targetPoint" />
          </mxGeometry>
        </mxCell>
        <mxCell id="BYCbOS0FEEhGUaiiPkb2-81" value="" style="endArrow=none;dashed=1;html=1;fillColor=#d5e8d4;strokeColor=#82b366;strokeWidth=3;" parent="1" edge="1">
          <mxGeometry width="50" height="50" relative="1" as="geometry">
            <mxPoint x="30" y="340" as="sourcePoint" />
            <mxPoint x="30" y="70" as="targetPoint" />
          </mxGeometry>
        </mxCell>
        <mxCell id="BYCbOS0FEEhGUaiiPkb2-82" value="" style="endArrow=none;dashed=1;html=1;fillColor=#d5e8d4;strokeColor=#82b366;strokeWidth=3;" parent="1" edge="1">
          <mxGeometry width="50" height="50" relative="1" as="geometry">
            <mxPoint x="30" y="340" as="sourcePoint" />
            <mxPoint x="1350" y="339.5" as="targetPoint" />
          </mxGeometry>
        </mxCell>
        <mxCell id="BYCbOS0FEEhGUaiiPkb2-83" value="Playback End" style="text;html=1;align=center;verticalAlign=middle;resizable=0;points=[];autosize=1;fillColor=#d5e8d4;strokeColor=#82b366;" parent="1" vertex="1">
          <mxGeometry x="70" y="330" width="90" height="20" as="geometry" />
        </mxCell>
        <mxCell id="BYCbOS0FEEhGUaiiPkb2-85" value="Playback Started" style="text;html=1;align=center;verticalAlign=middle;resizable=0;points=[];autosize=1;fillColor=#d5e8d4;strokeColor=#82b366;" parent="1" vertex="1">
          <mxGeometry x="37" y="60" width="110" height="20" as="geometry" />
        </mxCell>
        <mxCell id="BYCbOS0FEEhGUaiiPkb2-86" value="" style="endArrow=none;dashed=1;html=1;fillColor=#d5e8d4;strokeColor=#82b366;strokeWidth=3;" parent="1" target="BYCbOS0FEEhGUaiiPkb2-85" edge="1">
          <mxGeometry width="50" height="50" relative="1" as="geometry">
            <mxPoint x="30" y="70" as="sourcePoint" />
            <mxPoint x="1360" y="70" as="targetPoint" />
          </mxGeometry>
        </mxCell>
        <mxCell id="BYCbOS0FEEhGUaiiPkb2-87" value="Vroom&amp;nbsp;" style="rounded=1;whiteSpace=wrap;html=1;" parent="1" vertex="1">
          <mxGeometry x="1130" y="-320" width="50" height="70" as="geometry" />
        </mxCell>
        <mxCell id="BYCbOS0FEEhGUaiiPkb2-88" value="" style="endArrow=classic;html=1;entryX=0;entryY=0.143;entryDx=0;entryDy=0;entryPerimeter=0;" parent="1" target="BYCbOS0FEEhGUaiiPkb2-87" edge="1">
          <mxGeometry width="50" height="50" relative="1" as="geometry">
            <mxPoint x="122" y="-310" as="sourcePoint" />
            <mxPoint x="580.3399999999999" y="-263.3599999999999" as="targetPoint" />
          </mxGeometry>
        </mxCell>
        <mxCell id="BYCbOS0FEEhGUaiiPkb2-89" value="" style="endArrow=classic;startArrow=classic;html=1;entryX=0.1;entryY=0.028;entryDx=0;entryDy=0;entryPerimeter=0;exitX=1;exitY=0.25;exitDx=0;exitDy=0;" parent="1" source="BYCbOS0FEEhGUaiiPkb2-87" target="3xbs1KLySd6zEUoxScLz-3" edge="1">
          <mxGeometry width="50" height="50" relative="1" as="geometry">
            <mxPoint x="520" y="-180" as="sourcePoint" />
            <mxPoint x="570" y="-230" as="targetPoint" />
          </mxGeometry>
        </mxCell>
        <mxCell id="BYCbOS0FEEhGUaiiPkb2-90" value="5,6&amp;nbsp; FETCH FROM ALT/ORIGINAL STREAM" style="text;html=1;align=center;verticalAlign=middle;resizable=0;points=[];autosize=1;strokeColor=#666666;fillColor=#f5f5f5;fontColor=#333333;" parent="1" vertex="1">
          <mxGeometry x="730" y="-120" width="250" height="20" as="geometry" />
        </mxCell>
        <mxCell id="BYCbOS0FEEhGUaiiPkb2-92" value="5,6&amp;nbsp; FETCH FROM ALT/ORIGINAL STREAM" style="text;html=1;align=center;verticalAlign=middle;resizable=0;points=[];autosize=1;strokeColor=#666666;fillColor=#f5f5f5;fontColor=#333333;" parent="1" vertex="1">
          <mxGeometry x="745" width="250" height="20" as="geometry" />
        </mxCell>
        <mxCell id="BYCbOS0FEEhGUaiiPkb2-93" value="1. GET Index Manifest via Vroom Content API" style="text;html=1;align=center;verticalAlign=middle;resizable=0;points=[];autosize=1;fillColor=#f5f5f5;strokeColor=#666666;fontColor=#333333;" parent="1" vertex="1">
          <mxGeometry x="270" y="-340" width="260" height="20" as="geometry" />
        </mxCell>
        <mxCell id="BYCbOS0FEEhGUaiiPkb2-94" value="1. Redirect MeTA index Manifest Url" style="text;html=1;align=center;verticalAlign=middle;resizable=0;points=[];autosize=1;fillColor=#f5f5f5;strokeColor=#666666;fontColor=#333333;" parent="1" vertex="1">
          <mxGeometry x="675" y="-295" width="210" height="20" as="geometry" />
        </mxCell>
      </root>
    </mxGraphModel>
  </diagram>
</mxfile>
